<svg xmlns="http://www.w3.org/2000/svg" viewBox="0 0 400 400" fill="none">
  <!-- Rama de eucalipto acuarela para esquinas  sin fondo -->
  <g opacity="0.85">
    <ellipse cx="80" cy="120" rx="28" ry="42" fill="#9bb5a8" transform="rotate(-35 80 120)"/>
    <ellipse cx="130" cy="85" rx="32" ry="48" fill="#8aab9a" transform="rotate(-15 130 85)"/>
    <ellipse cx="185" cy="70" rx="26" ry="40" fill="#a8c4b4" transform="rotate(10 185 70)"/>
    <ellipse cx="55" cy="175" rx="24" ry="36" fill="#7d9f8e" transform="rotate(-55 55 175)"/>
    <ellipse cx="105" cy="155" rx="30" ry="44" fill="#9bb5a8" transform="rotate(-25 105 155)"/>
    <ellipse cx="160" cy="130" rx="22" ry="34" fill="#b5cfc0" transform="rotate(5 160 130)"/>
    <ellipse cx="210" cy="110" rx="20" ry="30" fill="#8aab9a" transform="rotate(25 210 110)"/>
    <ellipse cx="40" cy="230" rx="22" ry="34" fill="#a8c4b4" transform="rotate(-70 40 230)"/>
    <ellipse cx="90" cy="210" rx="26" ry="38" fill="#7d9f8e" transform="rotate(-40 90 210)"/>
    <ellipse cx="145" cy="185" rx="24" ry="36" fill="#9bb5a8" transform="rotate(-10 145 185)"/>
    <ellipse cx="200" cy="165" rx="18" ry="28" fill="#b5cfc0" transform="rotate(15 200 165)"/>
    <path d="M30 280 Q80 200 220 90" stroke="#8aab9a" stroke-width="2.5" stroke-linecap="round" opacity="0.5"/>
    <path d="M25 250 Q70 180 200 100" stroke="#6d8f7e" stroke-width="1.5" stroke-linecap="round" opacity="0.35"/>
  </g>
</svg>
